HIERARCHY
ROOT Hips
{
	OFFSET 52.594501 -11.408813 84.272202
	CHANNELS 6 Xposition Yposition Zposition Xrotation Yrotation Zrotation
	JOINT spine
	{
		OFFSET 0.000000 -0.342408 5.954376
		CHANNELS 3 Xrotation Yrotation Zrotation
		JOINT spine1
		{
			OFFSET 0.000000 -0.000002 8.856018
			CHANNELS 3 Xrotation Yrotation Zrotation
			JOINT spine2
			{
				OFFSET 0.000000 -0.000001 8.485672
				CHANNELS 3 Xrotation Yrotation Zrotation
				JOINT Neck
				{
					OFFSET 0.000000 -1.038704 21.786301
					CHANNELS 3 Xrotation Yrotation Zrotation
					JOINT Head
					{
						OFFSET 0.000000 -0.000001 6.582199
						CHANNELS 3 Xrotation Yrotation Zrotation
						End Site
						{
							OFFSET 0.000000 5.254357 15.932602
						}
					}
				}
				JOINT RightShoulder
				{
					OFFSET -3.573071 0.497523 9.163864
					CHANNELS 3 Xrotation Yrotation Zrotation
					JOINT RightArm
					{
						OFFSET 0.000000 -0.000002 12.019196
						CHANNELS 3 Xrotation Yrotation Zrotation
						JOINT RightArmRoll
						{
							OFFSET 0.000000 -0.000001 6.067535
							CHANNELS 3 Xrotation Yrotation Zrotation
							JOINT RightForeArm
							{
								OFFSET 0.000000 -0.000003 17.672592
								CHANNELS 3 Xrotation Yrotation Zrotation
								JOINT RightForeArmRoll
								{
									OFFSET 0.000000 -0.000001 6.808716
									CHANNELS 3 Xrotation Yrotation Zrotation
									JOINT RightHand
									{
										OFFSET 0.000000 -0.000003 13.663605
										CHANNELS 3 Xrotation Yrotation Zrotation
										End Site
										{
											OFFSET 0.000000 0.000000 0.100006
										}
									}
								}
							}
						}
					}
				}
				JOINT LeftShoulder
				{
					OFFSET 3.573071 0.497523 9.163864
					CHANNELS 3 Xrotation Yrotation Zrotation
					JOINT LeftArm
					{
						OFFSET 0.000000 -0.000002 12.019196
						CHANNELS 3 Xrotation Yrotation Zrotation
						JOINT LeftArmRoll
						{
							OFFSET 0.000000 -0.000001 6.067535
							CHANNELS 3 Xrotation Yrotation Zrotation
							JOINT LeftForeArm
							{
								OFFSET 0.000000 -0.000003 17.672592
								CHANNELS 3 Xrotation Yrotation Zrotation
								JOINT LeftForeArmRoll
								{
									OFFSET 0.000000 -0.000001 6.808716
									CHANNELS 3 Xrotation Yrotation Zrotation
									JOINT LeftHand
									{
										OFFSET 0.000000 -0.000003 13.663605
										CHANNELS 3 Xrotation Yrotation Zrotation
										End Site
										{
											OFFSET 0.000000 0.000000 0.100006
										}
									}
								}
							}
						}
					}
				}
			}
		}
	}
	JOINT RightUpLeg
	{
		OFFSET -5.277740 0.811858 -0.967796
		CHANNELS 3 Xrotation Yrotation Zrotation
		JOINT RightUpLegRoll
		{
			OFFSET 0.000000 -0.000003 16.021400
			CHANNELS 3 Xrotation Yrotation Zrotation
			JOINT RightLeg
			{
				OFFSET 0.000000 0.000003 -19.840103
				CHANNELS 3 Xrotation Yrotation Zrotation
				JOINT RightLegRoll
				{
					OFFSET 0.000000 -0.000003 19.904999
					CHANNELS 3 Xrotation Yrotation Zrotation
					JOINT RightFoot
					{
						OFFSET 0.000000 -0.000003 16.567497
						CHANNELS 3 Xrotation Yrotation Zrotation
						JOINT RightToeBase
						{
							OFFSET 0.000000 -0.000002 13.849602
							CHANNELS 3 Xrotation Yrotation Zrotation
							End Site
							{
								OFFSET 0.005871 0.773116 6.707275
							}
						}
					}
				}
			}
		}
	}
	JOINT LeftUpLeg
	{
		OFFSET 5.277740 0.811858 -0.967796
		CHANNELS 3 Xrotation Yrotation Zrotation
		JOINT LeftUpLegRoll
		{
			OFFSET 0.000000 -0.000003 16.021500
			CHANNELS 3 Xrotation Yrotation Zrotation
			JOINT LeftLeg
			{
				OFFSET 0.000000 -0.000003 19.840004
				CHANNELS 3 Xrotation Yrotation Zrotation
				JOINT LeftLegRoll
				{
					OFFSET 0.000000 -0.000004 20.089005
					CHANNELS 3 Xrotation Yrotation Zrotation
					JOINT LeftFoot
					{
						OFFSET 0.000000 -0.000003 16.383499
						CHANNELS 3 Xrotation Yrotation Zrotation
						JOINT LeftToeBase
						{
							OFFSET 0.000000 -0.000002 13.849594
							CHANNELS 3 Xrotation Yrotation Zrotation
							End Site
							{
								OFFSET -0.026310 0.773116 6.707275
							}
						}
					}
				}
			}
		}
	}
}
MOTION
Frames: 7
Frame Time: 0.041667
50.922798 -8.260455 84.077309 1.530343 -5.657985 55.063411 -1.204173 0.592877 0.096442 1.593440 1.184552 0.204233 3.238654 1.186971 0.191685 9.437861 18.608569 1.507826 -2.283682 -30.599545 0.666510 9.159034 -46.592310 13.176208 150.430217 -14.070262 86.185451 -0.000003 0.000005 -0.000003 36.997096 3.445499 -3.428456 0.000009 0.000010 -3.000009 -4.999900 -7.999886 0.000003 -44.960635 79.944052 49.729822 77.869334 44.236499 -84.368409 -0.000018 0.000028 0.000007 -0.034212 -3.638841 1.990739 -0.000016 -0.000010 3.011607 -5.000138 7.999927 0.000023 0.363136 -178.189035 2.153721 179.999991 -0.000005 -1.074999 168.600310 0.477394 -0.410744 -0.000003 -0.000002 0.439162 72.995755 6.815082 2.044756 25.456948 -7.363726 0.000005 -7.438714 -178.773412 1.731128 -0.000004 -0.000005 -0.870267 -6.502289 2.488747 0.305703 -0.000004 0.000001 -0.026569 68.284803 -6.896319 -2.168069 25.456950 7.355620 -0.000006 
50.929504 -8.300199 84.082405 1.528478 -5.671023 55.045266 -1.203862 0.591396 0.096440 1.594069 1.181623 0.204230 3.239282 1.184035 0.191683 9.466044 18.586775 1.519966 -2.304918 -30.555179 0.678025 9.153423 -46.618380 13.163820 150.404358 -14.055285 86.253090 -0.000002 0.000003 -0.000005 36.778540 3.449064 -3.420392 0.000008 0.000006 -3.000011 -4.999894 -7.999889 -0.000002 -45.013067 79.943956 49.784880 77.874573 44.281810 -84.376462 -0.000019 0.000028 0.000007 -0.034589 -3.638838 1.990742 -0.000018 -0.000010 3.011606 -5.000141 7.999928 0.000022 0.361360 -178.177041 2.160042 179.999991 -0.000004 -1.074995 168.581500 0.477362 -0.411585 -0.000004 -0.000002 0.440039 73.009627 6.814915 2.044786 25.456948 -7.363724 0.000005 -7.431136 -178.760503 1.737398 -0.000005 -0.000004 -0.870266 -6.514231 2.484674 0.306419 -0.000004 0.000001 -0.026571 68.273656 -6.896306 -2.168064 25.456950 7.355628 -0.000005 
50.919399 -8.268177 84.079506 1.526281 -5.684308 55.027501 -1.203452 0.589866 0.096437 1.594887 1.178603 0.204232 3.240098 1.181029 0.191684 9.494970 18.567608 1.532369 -2.327612 -30.513908 0.689355 9.147101 -46.642409 13.150949 150.379647 -14.039572 86.319500 -0.000005 0.000003 -0.000004 36.561784 3.452603 -3.412459 0.000009 0.000005 -3.000011 -4.999898 -7.999892 0.000001 -45.066066 79.944448 49.840447 77.879388 44.325554 -84.384037 -0.000017 0.000027 0.000006 -0.034991 -3.638842 1.990738 -0.000015 -0.000010 3.011607 -5.000143 7.999932 0.000024 0.360062 -178.165047 2.166295 179.999991 -0.000004 -1.074997 168.562512 0.477331 -0.412426 -0.000004 -0.000002 0.440923 73.023608 6.814766 2.044811 25.456947 -7.363730 0.000006 -7.423219 -178.748578 1.743715 -0.000004 -0.000005 -0.870269 -6.526522 2.480472 0.307144 -0.000004 0.000001 -0.026568 68.262092 -6.896334 -2.168091 25.456950 7.355621 -0.000005 
50.930805 -8.255976 84.080704 1.523846 -5.697757 55.010019 -1.202971 0.588301 0.096439 1.595845 1.175534 0.204232 3.241054 1.177953 0.191685 9.524422 18.550297 1.544954 -2.351332 -30.474894 0.700512 9.140256 -46.664976 13.137712 150.355673 -14.022204 86.385562 -0.000001 0.000004 -0.000003 36.346339 3.456103 -3.404605 0.000008 0.000007 -3.000012 -4.999895 -7.999892 0.000002 -45.119584 79.945397 49.896519 77.883834 44.368277 -84.391393 -0.000019 0.000029 0.000005 -0.035425 -3.638839 1.990738 -0.000017 -0.000009 3.011610 -5.000141 7.999928 0.000024 0.359106 -178.154037 2.172507 179.999991 -0.000004 -1.074002 168.543496 0.478277 -0.412074 -0.000004 -0.000002 0.441809 73.037617 6.814661 2.044845 25.456950 -7.363724 0.000006 -7.415063 -178.735655 1.749836 -0.000004 -0.000005 -0.870266 -6.539054 2.476167 0.307886 -0.000004 0.000001 -0.026568 68.250296 -6.896302 -2.168124 25.456953 7.355625 -0.000005 
50.931496 -8.255985 84.084602 1.521268 -5.711309 54.992517 -1.202451 0.586717 0.096437 1.596875 1.172435 0.204232 3.242081 1.174857 0.191681 9.554169 18.534053 1.557660 -2.375617 -30.437273 0.711620 9.133128 -46.686764 13.124296 150.331999 -14.005741 86.450633 -0.000001 0.000003 -0.000003 36.131694 3.459594 -3.396826 0.000007 0.000003 -3.000013 -4.999900 -7.999892 -0.000000 -45.172593 79.946435 49.952063 77.888137 44.410426 -84.398558 -0.000016 0.000027 0.000004 -0.035877 -3.638840 1.990743 -0.000017 -0.000011 3.011608 -5.000136 7.999927 0.000022 0.358343 -178.143040 2.178680 179.999991 -0.000005 -1.074003 168.524495 0.478244 -0.412921 -0.000004 -0.000003 0.442694 73.051831 6.814512 2.044757 25.456950 -7.363729 0.000006 -7.406766 -178.723743 1.756061 -0.000004 -0.000005 -0.870266 -6.551732 2.471822 0.308630 -0.000004 0.000001 -0.026568 68.238309 -6.896322 -2.168076 25.456953 7.355621 -0.000006 
50.920204 -8.230225 84.080399 1.518660 -5.724883 54.975212 -1.201931 0.585127 0.096437 1.597922 1.169325 0.204232 3.243139 1.171741 0.191677 9.583982 18.518099 1.570401 -2.400034 -30.399840 0.722732 9.125910 -46.708358 13.110820 150.308763 -13.988467 86.516196 -0.000002 0.000004 -0.000007 35.917151 3.463071 -3.389070 0.000008 0.000007 -3.000010 -4.999896 -7.999893 0.000001 -45.226262 79.947631 50.008220 77.892338 44.452456 -84.405702 -0.000018 0.000027 0.000007 -0.036329 -3.638841 1.990744 -0.000018 -0.000011 3.011606 -5.000139 7.999927 0.000025 0.357626 -178.131047 2.184859 179.999991 -0.000004 -1.073003 168.505398 0.479188 -0.413559 -0.000004 -0.000003 0.443584 73.065949 6.814422 2.044785 25.456945 -7.363724 0.000005 -7.398429 -178.711804 1.762277 -0.000004 -0.000005 -0.870269 -6.564443 2.467457 0.309375 -0.000004 0.000001 -0.026568 68.226322 -6.896304 -2.168119 25.456953 7.355628 -0.000006 
50.926704 -8.234757 84.080299 1.516113 -5.738405 54.957717 -1.201431 0.583549 0.096435 1.598940 1.166226 0.204232 3.244145 1.168644 0.191682 9.613639 18.501562 1.583126 -2.424145 -30.361919 0.733933 9.118838 -46.730351 13.097420 150.285417 -13.971189 86.582244 -0.000002 0.000005 -0.000004 35.702304 3.466554 -3.381320 0.000009 0.000006 -3.000010 -4.999900 -7.999892 0.000001 -45.279380 79.948628 50.063890 77.896668 44.494707 -84.412867 -0.000020 0.000028 0.000003 -0.036770 -3.638841 1.990735 -0.000018 -0.000010 3.011609 -5.000142 7.999927 0.000023 0.356813 -178.120036 2.191044 179.999991 -0.000004 -1.073005 168.486382 0.479156 -0.414395 -0.000004 -0.000002 0.444467 73.080060 6.814294 2.044808 25.456950 -7.363729 0.000007 -7.390176 -178.698895 1.768396 -0.000004 -0.000005 -0.870267 -6.577082 2.463123 0.310121 -0.000004 0.000001 -0.026567 68.214424 -6.896294 -2.168062 25.456953 7.355620 -0.000004 
